<svg width="48" height="48" viewBox="0 0 17 17" fill="none" xmlns="http://www.w3.org/2000/svg">
<g clip-path="url(#clip0_3_6)">
<rect x="2" width="15" height="15.3218" rx="3" fill="#3A3A3A"/>
<path d="M1.00633 1.54665L1.00633 1.72354C1.00633 9.54902 7.34114 15.8772 15.0032 15.847V15.847" stroke="#E86B6B" stroke-width="2" stroke-linecap="round"/>
<path d="M14.9892 3.08307C14.9997 2.52506 14.5654 2.06433 14.0191 2.05399L5.11664 1.88563C4.57034 1.8753 4.11892 2.31928 4.10837 2.87729C4.09782 3.4353 4.53212 3.89603 5.07842 3.90636L12.9917 4.05602L12.8389 12.139C12.8283 12.697 13.2626 13.1577 13.8089 13.168C14.3552 13.1784 14.8066 12.7344 14.8172 12.1764L14.9892 3.08307ZM0.317317 15.1193C-0.0764378 15.5066 -0.0885364 16.1463 0.290294 16.5482C0.669124 16.9501 1.29543 16.9619 1.68918 16.5747L0.317317 15.1193ZM13.3141 2.3367L0.317317 15.1193L1.68918 16.5747L14.6859 3.79203L13.3141 2.3367Z" fill="#00FFB7"/>
</g>
<defs>
<clipPath id="clip0_3_6">
<rect width="17" height="17" fill="white"/>
</clipPath>
</defs>
</svg>
